<?xml version="1.0" standalone="yes"?>

<svg version="1.1" viewBox="0.0 0.0 378.0 660.0" fill="none" stroke="none" stroke-linecap="square" stroke-miterlimit="10" xmlns="http://www.w3.org/2000/svg" xmlns:xlink="http://www.w3.org/1999/xlink"><path d="M5.7115116 1.0810163L374.24695 1.0810163L374.24695 657.27L5.7115116 657.27Z" fill-rule="nonzero" fill="#b45f06" stroke="#000000" stroke-width="2.0" stroke-linejoin="round" stroke-linecap="butt"></path><path d="M-5.821522 329.17554L384.76117 329.17554" fill-rule="nonzero" stroke="#000000" stroke-width="2.0" stroke-linejoin="round" stroke-linecap="butt"></path><path d="M147.70604 329.1755L147.70604 329.1755C147.70604 306.11002 166.40431 287.4117 189.46982 287.4117L189.46982 287.4117C200.54626 287.4117 211.16904 291.81183 219.00127 299.64404C226.8335 307.4763 231.2336 318.09906 231.2336 329.1755L231.2336 329.1755C231.2336 352.241 212.53531 370.93927 189.46982 370.93927L189.46982 370.93927C166.40431 370.93927 147.70604 352.241 147.70604 329.1755Z" fill-rule="nonzero" stroke="#000000" stroke-width="2.0" stroke-linejoin="round" stroke-linecap="butt"></path><path d="M135.20079 1.8842069L243.48425 1.8842069L243.48425 127.64799L135.20079 127.64799Z" fill-rule="nonzero" stroke="#000000" stroke-width="2.0" stroke-linejoin="round" stroke-linecap="butt"></path><path d="M135.45538 105.06804L130.82545 105.06804" fill-rule="nonzero" stroke="#000000" stroke-width="2.0" stroke-linejoin="round" stroke-linecap="butt"></path><path d="M248.11417 105.06804L243.48425 105.06804" fill-rule="nonzero" stroke="#000000" stroke-width="2.0" stroke-linejoin="round" stroke-linecap="butt"></path><path d="M248.11417 80.46174L243.48425 80.46174" fill-rule="nonzero" stroke="#000000" stroke-width="2.0" stroke-linejoin="round" stroke-linecap="butt"></path><path d="M135.45538 80.46174L130.82545 80.46174" fill-rule="nonzero" stroke="#000000" stroke-width="2.0" stroke-linejoin="round" stroke-linecap="butt"></path><path d="M248.11417 36.91318L243.48425 36.91318" fill-rule="nonzero" stroke="#000000" stroke-width="2.0" stroke-linejoin="round" stroke-linecap="butt"></path><path d="M135.45538 36.91318L130.82545 36.91318" fill-rule="nonzero" stroke="#000000" stroke-width="2.0" stroke-linejoin="round" stroke-linecap="butt"></path><path d="M131.83333 55.22814L134.44751 55.22814L134.44751 62.18877L131.83333 62.18877Z" fill-rule="nonzero" fill="#000000" stroke="#000000" stroke-width="2.0" stroke-linejoin="round" stroke-linecap="butt"></path><path d="M244.49213 55.22814L247.1063 55.22814L247.1063 62.18877L244.49213 62.18877Z" fill-rule="nonzero" fill="#000000" stroke="#000000" stroke-width="2.0" stroke-linejoin="round" stroke-linecap="butt"></path><path d="M344.18497 31.820324C345.64508 73.749695 329.9683 114.46586 300.7659 144.58936C271.56354 174.71286 231.35368 191.64615 189.3992 191.48843" fill-rule="nonzero" stroke="#000000" stroke-width="2.0" stroke-linejoin="round" stroke-linecap="butt"></path><path d="M35.77347 31.820324C34.313343 73.749695 49.990143 114.46586 79.19252 144.58936C108.394905 174.71286 148.60475 191.64615 190.55923 191.48843" fill-rule="nonzero" stroke="#000000" stroke-width="2.0" stroke-linejoin="round" stroke-linecap="butt"></path><path d="M35.6826 34.297367L35.6826 1.8249257" fill-rule="nonzero" stroke="#000000" stroke-width="2.0" stroke-linejoin="round" stroke-linecap="butt"></path><path d="M344.2784 34.297367L344.2784 1.8249257" fill-rule="nonzero" stroke="#000000" stroke-width="2.0" stroke-linejoin="round" stroke-linecap="butt"></path><path d="M232.27173 127.11543L232.27173 127.11543C231.64018 150.484 212.43304 169.05489 189.05647 168.89919C165.6799 168.74347 146.72185 149.91835 146.40167 126.54345" fill-rule="nonzero" stroke="#000000" stroke-width="2.0" stroke-linejoin="round" stroke-linecap="butt"></path><path d="M218.41602 37.199272L218.41602 37.199272C218.41602 37.392616 218.41408 37.585957 218.41022 37.779263" fill-rule="nonzero" stroke="#073763" stroke-width="2.0" stroke-linejoin="round" stroke-linecap="butt"></path><path d="M168.521 26.755701L210.8832 26.755701" fill-rule="nonzero" stroke="#000000" stroke-width="2.0" stroke-linejoin="round" stroke-linecap="butt"></path><path d="M183.24803 36.779324L183.24803 36.779324C183.24803 33.40473 185.97662 30.669086 189.34251 30.669086L189.34251 30.669086C190.95888 30.669086 192.50903 31.312841 193.65198 32.458733C194.7949 33.604626 195.43701 35.158787 195.43701 36.779324L195.43701 36.779324C195.43701 40.15391 192.70842 42.88956 189.34251 42.88956L189.34251 42.88956C185.97662 42.88956 183.24803 40.15391 183.24803 36.779324Z" fill-rule="nonzero" stroke="#000000" stroke-width="2.0" stroke-linejoin="round" stroke-linecap="butt"></path><path d="M189.31364 26.690084L189.31364 30.595596" fill-rule="nonzero" stroke="#000000" stroke-width="2.0" stroke-linejoin="round" stroke-linecap="butt"></path><path d="M160.40027 38.35675L160.40027 27.049664" fill-rule="nonzero" stroke="#000000" stroke-width="2.0" stroke-linejoin="round" stroke-linecap="butt"></path><path d="M218.41602 37.196644L218.41602 26.771448" fill-rule="nonzero" stroke="#000000" stroke-width="2.0" stroke-linejoin="round" stroke-linecap="butt"></path><path d="M218.41602 37.199272L218.41602 37.199272C218.41602 53.21988 205.42874 66.207146 189.40814 66.207146C173.38753 66.207146 160.40027 53.21988 160.40027 37.199272" fill-rule="nonzero" stroke="#000000" stroke-width="2.0" stroke-linejoin="round" stroke-linecap="butt"></path><path d="M135.20079 656.98193L243.48425 656.98193L243.48425 531.21814L135.20079 531.21814Z" fill-rule="nonzero" stroke="#000000" stroke-width="2.0" stroke-linejoin="round" stroke-linecap="butt"></path><path d="M135.45538 553.7981L130.82545 553.7981" fill-rule="nonzero" stroke="#000000" stroke-width="2.0" stroke-linejoin="round" stroke-linecap="butt"></path><path d="M248.11417 553.7981L243.48425 553.7981" fill-rule="nonzero" stroke="#000000" stroke-width="2.0" stroke-linejoin="round" stroke-linecap="butt"></path><path d="M248.11417 578.4044L243.48425 578.4044" fill-rule="nonzero" stroke="#000000" stroke-width="2.0" stroke-linejoin="round" stroke-linecap="butt"></path><path d="M135.45538 578.4044L130.82545 578.4044" fill-rule="nonzero" stroke="#000000" stroke-width="2.0" stroke-linejoin="round" stroke-linecap="butt"></path><path d="M248.11417 621.95294L243.48425 621.95294" fill-rule="nonzero" stroke="#000000" stroke-width="2.0" stroke-linejoin="round" stroke-linecap="butt"></path><path d="M135.45538 621.95294L130.82545 621.95294" fill-rule="nonzero" stroke="#000000" stroke-width="2.0" stroke-linejoin="round" stroke-linecap="butt"></path><path d="M131.83333 603.638L134.44751 603.638L134.44751 596.67737L131.83333 596.67737Z" fill-rule="nonzero" fill="#000000" stroke="#000000" stroke-width="2.0" stroke-linejoin="round" stroke-linecap="butt"></path><path d="M244.49213 603.638L247.1063 603.638L247.1063 596.67737L244.49213 596.67737Z" fill-rule="nonzero" fill="#000000" stroke="#000000" stroke-width="2.0" stroke-linejoin="round" stroke-linecap="butt"></path><path d="M344.18497 627.04584C345.64508 585.11646 329.9683 544.40027 300.7659 514.2768C271.56354 484.1533 231.35368 467.22 189.3992 467.37772" fill-rule="nonzero" stroke="#000000" stroke-width="2.0" stroke-linejoin="round" stroke-linecap="butt"></path><path d="M35.77347 627.04584C34.313343 585.11646 49.990143 544.40027 79.19252 514.2768C108.394905 484.1533 148.60475 467.22 190.55923 467.37772" fill-rule="nonzero" stroke="#000000" stroke-width="2.0" stroke-linejoin="round" stroke-linecap="butt"></path><path d="M35.6826 624.5688L35.6826 657.0412" fill-rule="nonzero" stroke="#000000" stroke-width="2.0" stroke-linejoin="round" stroke-linecap="butt"></path><path d="M344.2784 624.5688L344.2784 657.0412" fill-rule="nonzero" stroke="#000000" stroke-width="2.0" stroke-linejoin="round" stroke-linecap="butt"></path><path d="M232.27173 531.75073L232.27173 531.75073C231.64018 508.38214 212.43304 489.81125 189.05647 489.96695C165.6799 490.12268 146.72185 508.94778 146.40167 532.3227" fill-rule="nonzero" stroke="#000000" stroke-width="2.0" stroke-linejoin="round" stroke-linecap="butt"></path><path d="M218.41602 621.6669L218.41602 621.6669C218.41602 621.4735 218.41408 621.2802 218.41022 621.08685" fill-rule="nonzero" stroke="#073763" stroke-width="2.0" stroke-linejoin="round" stroke-linecap="butt"></path><path d="M168.521 632.1104L210.8832 632.1104" fill-rule="nonzero" stroke="#000000" stroke-width="2.0" stroke-linejoin="round" stroke-linecap="butt"></path><path d="M183.24803 622.0868L183.24803 622.0868C183.24803 625.4614 185.97662 628.1971 189.34251 628.1971L189.34251 628.1971C190.95888 628.1971 192.50903 627.5533 193.65198 626.4074C194.7949 625.26154 195.43701 623.70734 195.43701 622.0868L195.43701 622.0868C195.43701 618.7122 192.70842 615.97656 189.34251 615.97656L189.34251 615.97656C185.97662 615.97656 183.24803 618.7122 183.24803 622.0868Z" fill-rule="nonzero" stroke="#000000" stroke-width="2.0" stroke-linejoin="round" stroke-linecap="butt"></path><path d="M189.31364 632.1761L189.31364 628.27057" fill-rule="nonzero" stroke="#000000" stroke-width="2.0" stroke-linejoin="round" stroke-linecap="butt"></path><path d="M160.40027 620.5094L160.40027 631.81647" fill-rule="nonzero" stroke="#000000" stroke-width="2.0" stroke-linejoin="round" stroke-linecap="butt"></path><path d="M218.41602 621.6695L218.41602 632.09467" fill-rule="nonzero" stroke="#000000" stroke-width="2.0" stroke-linejoin="round" stroke-linecap="butt"></path><path d="M218.41602 621.6669L218.41602 621.6669C218.41602 605.64624 205.42874 592.659 189.40814 592.659C173.38753 592.659 160.40027 605.64624 160.40027 621.6669" fill-rule="nonzero" stroke="#000000" stroke-width="2.0" stroke-linejoin="round" stroke-linecap="butt"></path></svg>

